<?xml version="1.0" encoding="UTF-8" standalone="no"?>
<!DOCTYPE svg PUBLIC "-//W3C//DTD SVG 1.1//EN" "http://www.w3.org/Graphics/SVG/1.1/DTD/svg11.dtd">
<!-- Created with Vectornator (http://vectornator.io/) -->
<svg height="100%" stroke-miterlimit="10" style="fill-rule:nonzero;clip-rule:evenodd;stroke-linecap:round;stroke-linejoin:round;" version="1.1" viewBox="0 0 2000 2000" width="100%" xml:space="preserve" xmlns="http://www.w3.org/2000/svg" xmlns:vectornator="http://vectornator.io" xmlns:xlink="http://www.w3.org/1999/xlink">
<defs/>
<g id="All" vectornator:layerName="All">
<path d="M952.281 248.219C804.652 251.894 616.227 444.888 635.656 853.969C467.727 1009.49 465.021 1103.5 450.312 1289.97C340.366 1606.57 522.913 1713.42 917.094 1749.78C1304.68 1770.97 1555.78 1628.86 1464.19 1308.69C1466.74 1112.42 1480.1 1063.45 1396.12 905.969C1820.12 407.119 1412.28 104.198 1145.52 409.393C1090.12 505.084 1058.65 634.237 1033.75 815.5L1012.62 812.594C1037.78 629.459 1075.95 514.571 1118.65 430.551C1111.47 307.232 1024.61 246.418 952.281 248.219ZM629.531 1204.31C643.192 1203.93 658.641 1206.5 674.219 1212.38C715.761 1228.04 742.545 1261.13 734.062 1286.25C725.58 1311.37 685.042 1319.04 643.5 1303.38C601.958 1287.71 575.142 1254.65 583.625 1229.53C588.927 1213.83 606.763 1204.94 629.531 1204.31ZM1227.69 1225.28C1257.14 1224.27 1280.82 1235.14 1285.81 1254.44C1292.47 1280.17 1263.41 1311.12 1220.91 1323.56C1178.41 1336 1138.53 1325.23 1131.88 1299.5C1125.22 1273.77 1154.28 1242.82 1196.78 1230.38C1207.41 1227.26 1217.87 1225.62 1227.69 1225.28ZM891.781 1327.06C897.097 1327.22 902.314 1330.95 902.125 1338.03C902.124 1338.05 902.126 1338.07 902.125 1338.09C901.428 1365.29 918.483 1384.46 948.531 1394.84C974.34 1403.76 1006.48 1404.13 1023.34 1397.06L1031.59 1416.75C1021.01 1421.19 1006.82 1423.33 991.594 1423.25C965.291 1512.32 943.759 1551.71 918.75 1551.41C906.021 1551.25 896.452 1541.85 887.75 1525.47C881.85 1514.36 876.741 1501.1 869.5 1479.62C868.749 1477.4 864.046 1463.37 862.719 1459.47C860.218 1452.11 858.229 1446.47 856.312 1441.56C853.342 1433.95 850.69 1428.42 848.344 1424.88C847.662 1423.85 847.186 1423.41 846.688 1422.88C834.585 1423.67 821.624 1420.23 808.812 1412.41L819.906 1394.22C830.227 1400.52 839.711 1402.75 847.969 1401.34L847.969 1401C848.28 1401 848.539 1401.14 848.844 1401.16C852.917 1400.32 856.714 1398.67 860.094 1396.03C872.01 1386.72 879.804 1366.54 880.812 1337.44C880.813 1337.42 880.812 1337.4 880.812 1337.38C881.055 1330.3 886.465 1326.9 891.781 1327.06ZM894.188 1382.28C889.3 1395.38 882.283 1405.76 873.219 1412.84C871.524 1414.17 869.726 1415.25 867.938 1416.31C870.651 1420.97 873.311 1426.52 876.156 1433.81C878.209 1439.07 880.343 1444.96 882.938 1452.59C884.288 1456.57 888.955 1470.64 889.688 1472.81C896.569 1493.22 901.406 1505.7 906.594 1515.47C909.503 1520.94 912.282 1524.98 914.844 1527.5C916.767 1529.39 918.119 1530.08 919 1530.09C920.11 1530.11 921.897 1529.23 924.562 1526.69C928.404 1523.02 932.759 1516.83 937.469 1508.03C947.199 1489.84 958.007 1460.95 969.812 1421.59C960.173 1420.23 950.56 1418.11 941.562 1415C921.028 1407.9 904.736 1396.85 894.188 1382.28Z" fill="#ffdbe5" fill-rule="nonzero" opacity="1" stroke="none" vectornator:layerName="Base color"/>
<path d="M643.487 1303.36C601.945 1287.7 575.145 1254.64 583.628 1229.52C592.111 1204.39 632.664 1196.73 674.206 1212.39C715.747 1228.05 742.547 1261.11 734.064 1286.24C725.581 1311.36 685.029 1319.03 643.487 1303.36ZM1196.78 1230.38C1239.29 1217.94 1279.14 1228.71 1285.8 1254.44C1292.46 1280.17 1263.4 1311.12 1220.9 1323.56C1178.4 1336 1138.55 1325.23 1131.89 1299.5C1125.23 1273.77 1154.28 1242.82 1196.78 1230.38Z" fill="#000000" fill-rule="nonzero" opacity="1" stroke="#000000" stroke-linecap="round" stroke-linejoin="round" stroke-width="5" vectornator:layerName="Eyes"/>
<path d="M1120.24 440.303C1105.57 98.0507 604.563 199.446 635.65 853.976C467.721 1009.5 465.03 1103.51 450.321 1289.98C340.374 1606.58 522.906 1713.43 917.087 1749.79C1304.67 1770.98 1555.77 1628.84 1464.17 1308.67C1466.73 1112.41 1480.09 1063.44 1396.11 905.958C1837.65 386.464 1384.72 78.4503 1120.25 438.374M1124.37 432.968C1066.05 564.814 1048.24 631.594 1023.18 814.038M814.362 1403.31C853.299 1427.08 889.182 1404.38 891.466 1337.73C889.556 1409.35 990.928 1422.22 1027.48 1406.9M847.83 1411.66C881.733 1412.11 900.271 1700.7 983.44 1413.44" fill="none" opacity="1" stroke="#000000" stroke-linecap="round" stroke-linejoin="round" stroke-width="21.3271" vectornator:layerName="Outline"/>
</g>
</svg>
