<?xml version="1.0" encoding="UTF-8" standalone="no"?>
<!DOCTYPE svg PUBLIC "-//W3C//DTD SVG 1.1//EN" "http://www.w3.org/Graphics/SVG/1.1/DTD/svg11.dtd">
<!-- Created with Vectornator (http://vectornator.io/) -->
<svg height="100%" stroke-miterlimit="10" style="fill-rule:nonzero;clip-rule:evenodd;stroke-linecap:round;stroke-linejoin:round;" version="1.1" viewBox="0 0 2000 2000" width="100%" xml:space="preserve" xmlns="http://www.w3.org/2000/svg" xmlns:vectornator="http://vectornator.io" xmlns:xlink="http://www.w3.org/1999/xlink">
<defs/>
<g id="Layer-2" vectornator:layerName="Layer 2">
<path d="M1020.25 268.931C988.104 261.008 1076.74 355.813 1040.38 693.477C1006.13 686.219 992.858 684.323 950.039 694.285C882.412 539.879 835.419 275.681 803.773 290.127C772.126 304.573 626.146 498.745 823.452 752.069C764.958 856.705 753.531 947.762 753.531 947.762C753.531 947.762 642.624 1049.06 773.53 1150.36C714.309 1306.23 697.168 1408.05 697.168 1408.05C697.168 1408.05 493.448 1735.2 817.566 1826.9C903.602 1850.75 931.227 1842.56 957.471 1791.84C1002.47 1795.35 1033.41 1810.82 1124.04 1785.92C1167.57 1866.1 1261.64 1806.66 1261.64 1806.66C1420.91 1720.65 1360.28 1501.09 1323 1398.82C1306.02 1309.9 1247.49 1203.84 1228.93 1149.83C1286.03 1113.13 1316.96 1016.53 1246.06 938.688C1231.06 832.522 1198.94 797.738 1168.96 725.169C1302.9 338.683 1052.39 276.855 1020.25 268.931Z" fill="#ffffff" fill-rule="nonzero" opacity="1" stroke="#000000" stroke-linecap="round" stroke-linejoin="round" stroke-width="5" vectornator:layerName="Body"/>
<path d="M739.198 980.16C739.198 960.75 760.486 945.016 786.746 945.016C813.006 945.016 834.294 960.75 834.294 980.16C834.294 999.569 813.006 1015.3 786.746 1015.3C760.486 1015.3 739.198 999.569 739.198 980.16ZM1174.71 985.672C1174.71 966.263 1196 950.528 1222.26 950.528C1248.52 950.528 1269.81 966.263 1269.81 985.672C1269.81 1005.08 1248.52 1020.82 1222.26 1020.82C1196 1020.82 1174.71 1005.08 1174.71 985.672ZM933.549 1813.47C895.58 1836.47 836.202 1813.58 858.048 1753.02C892.774 1656.76 1021.49 1637.01 934.136 1813.1M1224.55 1786.64C1220.98 1811.8 1164.23 1831.49 1143.01 1793.57C1089.85 1698.6 1131.1 1632.31 1188.17 1695.86C1205.57 1715.24 1213.53 1747.2 1225.62 1782.35M869.578 722.21C783.766 633.616 727.735 468.27 787.463 367.048C797.638 349.804 865.598 569.969 889.507 710.547M1134.1 712.609C1191.72 603.557 1184.51 418.907 1098.86 338.42C1112.42 394.517 1095.36 565.327 1111.71 706.983" fill="#ffdbe5" fill-rule="nonzero" opacity="1" stroke="none" vectornator:layerName="Cheek"/>
<path d="M833.581 977.26C848.094 987.018 858.773 1002.63 869.539 1005.07C878.099 1006.86 868.415 987.196 862.364 980.243C852.951 969.427 837.703 955.075 800.729 960.215C774.806 972.864 806.869 964.499 833.581 977.26ZM1174.13 977.171C1159.04 986.004 1147.41 1000.92 1136.51 1002.68C1127.86 1003.93 1138.75 984.913 1145.22 978.352C1155.29 968.144 1171.41 954.772 1207.99 962.21C1233.07 976.452 1201.59 966.102 1174.13 977.171Z" fill="#000000" fill-rule="nonzero" opacity="1" stroke="#000000" stroke-linecap="round" stroke-linejoin="round" stroke-width="2.51614" vectornator:layerName="Eyes"/>
<path d="M971.636 1097.59C995.305 1098.13 992.975 1089.27 1000 1078.99C1007.1 1090.65 1008.24 1097.13 1025.22 1097.76M823.935 1761.54C866.183 1597.93 1033.48 1615.24 956.07 1793.02M1246.7 1754.05C1221.99 1583.19 1035.18 1605.04 1125.56 1788.77" fill="none" opacity="1" stroke="#000000" stroke-linecap="round" stroke-linejoin="round" stroke-width="5" vectornator:layerName="Line"/>
<path d="M996.232 1508.58C963.997 1485.5 934.636 1464.03 908.358 1443.74C765.942 1333.77 714.093 1258.44 786.111 1149.77C874.427 1057.94 958.333 1134.43 997.387 1207.8C1038.83 1139.74 1107.7 1081.23 1191.93 1131.69C1294.35 1222.4 1281.81 1316.51 996.232 1508.58ZM559.756 887.023C543.632 882.835 528.87 878.84 515.479 874.831C442.902 853.105 410.574 830.997 419.782 775.873C438.007 724.947 482.724 742.454 509.859 765.803C514.235 731.858 530.638 697.417 571.123 704.4C625.263 724.698 636.24 764.555 559.756 887.023ZM1422.35 697.154C1416.27 685.37 1410.8 674.479 1406.05 664.359C1380.32 609.506 1375.89 577.255 1411.94 547.805C1450.33 526.114 1463.85 562.502 1464.85 592.588C1486.36 573.719 1514.46 561.363 1531.73 588.729C1548.61 632.221 1531.79 663.521 1422.35 697.154ZM1507.48 841.429C1505.35 831.038 1503.48 821.463 1502.02 812.631C1494.05 764.763 1497.61 738.719 1531.67 722.8C1565.86 713.397 1568.41 744.456 1562.69 768.137C1583.3 757.628 1607.57 753.495 1614.95 778.244C1618.55 815.506 1598.87 836.641 1507.48 841.429ZM1441.42 1239.41C1437.81 1231.36 1434.58 1223.92 1431.8 1217.02C1416.73 1179.63 1414.98 1158.04 1440.02 1139.8C1466.32 1126.8 1473.96 1151.48 1473.51 1171.51C1488.5 1159.76 1507.63 1152.59 1518.09 1171.41C1527.69 1200.93 1515.36 1221.1 1441.42 1239.41ZM510.704 1212.81C503.398 1213.59 496.674 1214.24 490.489 1214.66C456.969 1216.98 439.294 1212.8 430.772 1188.27C426.745 1164.07 448.307 1164.37 464.2 1169.89C458.44 1154.98 457.331 1137.98 474.895 1134.54C500.803 1134.52 513.944 1149.49 510.704 1212.81Z" fill="#ffd7e1" fill-rule="nonzero" opacity="1" stroke="none" vectornator:layerName="Hearts"/>
<path d="M789.189 1369.66C949.82 1319.1 1002.26 1418.62 874.782 1458.9M1211.76 1369.66C1051.13 1319.1 998.687 1418.62 1126.17 1458.9" fill="#ffffff" fill-rule="nonzero" opacity="1" stroke="#000000" stroke-linecap="round" stroke-linejoin="round" stroke-width="5" vectornator:layerName="Hand"/>
</g>
</svg>
