<?xml version="1.0" encoding="UTF-8" standalone="no"?>
<!DOCTYPE svg PUBLIC "-//W3C//DTD SVG 1.1//EN" "http://www.w3.org/Graphics/SVG/1.1/DTD/svg11.dtd">
<!-- Created with Vectornator (http://vectornator.io/) -->
<svg height="100%" stroke-miterlimit="10" style="fill-rule:nonzero;clip-rule:evenodd;stroke-linecap:round;stroke-linejoin:round;" version="1.1" viewBox="0 0 2000 2000" width="100%" xml:space="preserve" xmlns="http://www.w3.org/2000/svg" xmlns:vectornator="http://vectornator.io" xmlns:xlink="http://www.w3.org/1999/xlink">
<defs/>
<g id="All" vectornator:layerName="All">
<path d="M1203.78 265.406C1057.48 261.951 858.451 434.356 832.938 832.844C648.76 968.735 635.629 1061.85 600.281 1245.53C455.82 1547.95 625.336 1674.42 1013.03 1754.38C1395.86 1818.52 1661.22 1705.18 1605.78 1376.81C1630.14 1182.05 1648.85 1134.87 1582.91 969.031C2055.34 524.536 1701.82 180.358 1405.55 430.706C1395.87 438.886 1377.15 469.796 1374.62 474.125C1302.44 597.92 1277.74 661.472 1232.84 838.844C1231.4 844.553 1225.58 848.008 1219.88 846.562C1214.17 845.117 1210.71 839.303 1212.16 833.594C1257.52 654.391 1282.97 589.038 1356.22 463.406C1357.38 461.419 1361.1 450.409 1361 446.17C1358.33 331.268 1290.39 267.452 1203.78 265.406ZM799.594 1182.12C814.869 1182.24 832.45 1186.61 849.75 1195.44C889.293 1215.62 912.254 1251.45 901.031 1275.47C889.808 1299.49 848.668 1302.62 809.125 1282.44C769.582 1262.25 746.621 1226.4 757.844 1202.38C764.157 1188.86 779.954 1181.98 799.594 1182.12ZM1383.16 1269.59C1419.78 1267.73 1449.59 1282.2 1452.88 1305.22C1456.63 1331.53 1424.34 1359.05 1380.72 1366.69C1337.1 1374.33 1298.69 1359.19 1294.94 1332.88C1291.18 1306.56 1323.47 1279.05 1367.09 1271.41C1372.55 1270.45 1377.92 1269.86 1383.16 1269.59ZM1037.5 1364.5C1040.23 1364.46 1042.98 1365.45 1045.09 1367.5C1049.32 1371.6 1049.42 1378.37 1045.31 1382.59C1032.61 1395.67 1028.5 1412.58 1033.53 1426.22C1038.61 1440.01 1052.17 1448.38 1072.22 1447.47C1081.33 1447.06 1086.7 1457.55 1081.06 1464.72C1066.63 1483.08 1058.01 1503.18 1058.09 1517.84C1058.17 1531.63 1065.64 1539.17 1084.03 1540.41C1089.91 1540.8 1094.36 1545.91 1093.97 1551.78C1093.57 1557.66 1088.47 1562.08 1082.59 1561.69C1053.28 1559.71 1036.9 1543.15 1036.75 1517.94C1036.66 1502.48 1042.86 1484.53 1053.47 1467.16C1034.24 1462.92 1019.87 1450.88 1013.5 1433.59C1005.55 1412.02 1011.74 1386.52 1030 1367.72C1032.05 1365.61 1034.77 1364.54 1037.5 1364.5Z" fill="#ffdbe5" fill-rule="nonzero" opacity="1" stroke="none" vectornator:layerName="Base color"/>
<path d="M1360.5 475.596C1383.97 133.835 874.796 178.906 832.927 832.834C648.749 968.726 635.625 1061.85 600.277 1245.53C455.816 1547.95 625.338 1674.43 1013.03 1754.38C1395.86 1818.53 1661.2 1705.18 1605.77 1376.82C1630.13 1182.06 1648.84 1134.87 1582.9 969.033C2079.45 501.844 1663.57 145.388 1360.73 473.681M1365.42 468.766C1292.8 593.311 1267.68 657.697 1222.49 836.225M1037.65 1375.15C1005.55 1408.19 1020.37 1460.49 1072.69 1458.13C1042.12 1497.03 1032.33 1547.61 1083.32 1551.05" fill="none" opacity="1" stroke="#000000" stroke-linecap="round" stroke-linejoin="round" stroke-width="21.3271" vectornator:layerName="Outline"/>
<path d="M809.123 1282.43C769.58 1262.24 746.622 1226.41 757.845 1202.38C769.068 1178.36 810.222 1175.25 849.765 1195.43C889.308 1215.61 912.266 1251.45 901.043 1275.47C889.82 1299.5 848.666 1302.61 809.123 1282.43ZM1367.11 1271.4C1410.73 1263.76 1449.13 1278.9 1452.89 1305.21C1456.65 1331.53 1424.33 1359.05 1380.71 1366.69C1337.09 1374.33 1298.68 1359.19 1294.93 1332.88C1291.17 1306.57 1323.48 1279.04 1367.11 1271.4Z" fill="#000000" fill-rule="nonzero" opacity="1" stroke="#000000" stroke-linecap="round" stroke-linejoin="round" stroke-width="5" vectornator:layerName="Eyes"/>
<path d="M250.248 752.141C-66.1211 454.024 371.12 282.66 482.531 487.762C434.982 251.347 854.098 118.214 828.299 534.791C810.041 686.828 721.604 768.322 648.704 920.436C496.749 854.451 356.415 846.85 250.248 752.141Z" fill="#f17897" fill-rule="nonzero" opacity="1" stroke="none" vectornator:layerName="Hearts"/>
</g>
</svg>
