<?xml version="1.0" encoding="UTF-8" standalone="no"?>
<!DOCTYPE svg PUBLIC "-//W3C//DTD SVG 1.1//EN" "http://www.w3.org/Graphics/SVG/1.1/DTD/svg11.dtd">
<!-- Created with Vectornator (http://vectornator.io/) -->
<svg height="100%" stroke-miterlimit="10" style="fill-rule:nonzero;clip-rule:evenodd;stroke-linecap:round;stroke-linejoin:round;" version="1.1" viewBox="0 0 2000 2000" width="100%" xml:space="preserve" xmlns="http://www.w3.org/2000/svg" xmlns:vectornator="http://vectornator.io" xmlns:xlink="http://www.w3.org/1999/xlink">
<defs/>
<g id="All" vectornator:layerName="All">
<path d="M933.781 248.156C786.152 251.831 597.727 444.825 617.156 853.906C449.227 1009.43 446.553 1103.43 431.844 1289.91C321.897 1606.51 504.413 1713.36 898.594 1749.72C1286.18 1770.91 1537.28 1628.76 1445.69 1308.59C1448.24 1112.33 1461.6 1063.39 1377.62 905.906C1813.36 393.237 1388.89 82.8558 1123.19 420.813C1119.68 428.888 1117.84 432.767 1115.62 437.219C1069.11 530.871 1039.5 638.913 1015.25 815.438C1014.45 821.272 1009.08 825.333 1003.25 824.531C997.415 823.73 993.323 818.366 994.125 812.531C1019.28 629.396 1037.29 561.59 1096.12 428.594C1097.06 426.481 1097.78 424.022 1098.92 419.488C1087.99 302.093 1018.45 246.049 933.781 248.156ZM629.531 1204.31C643.192 1203.93 658.641 1206.5 674.219 1212.38C715.761 1228.04 742.545 1261.13 734.062 1286.25C725.58 1311.37 685.042 1319.04 643.5 1303.38C601.958 1287.71 575.142 1254.65 583.625 1229.53C588.927 1213.83 606.763 1204.94 629.531 1204.31ZM1227.69 1225.28C1257.14 1224.27 1280.82 1235.14 1285.81 1254.44C1292.47 1280.17 1263.41 1311.12 1220.91 1323.56C1178.41 1336 1138.53 1325.23 1131.88 1299.5C1125.22 1273.77 1154.28 1242.82 1196.78 1230.38C1207.41 1227.26 1217.87 1225.62 1227.69 1225.28ZM918.562 1375.25C923.878 1375.41 929.095 1379.11 928.906 1386.19C928.137 1415.04 939.275 1434.41 958.844 1444.5C975.796 1453.24 997.999 1453.92 1014.44 1447.03C1019.87 1444.75 1026.1 1447.32 1028.38 1452.75C1030.65 1458.18 1028.12 1464.41 1022.69 1466.69C1000.5 1475.99 971.72 1475.14 949.094 1463.47C935.365 1456.39 924.635 1445.85 917.5 1432.38C911.011 1444.64 902.001 1454.36 890.781 1460.91C869.147 1473.54 842.211 1472.68 819.5 1458.81C814.473 1455.74 812.901 1449.18 815.969 1444.16C819.037 1439.13 825.598 1437.53 830.625 1440.59C846.796 1450.46 865.338 1451.08 880.031 1442.5C896.222 1433.05 906.587 1413.43 907.562 1385.62C907.564 1385.59 907.562 1385.56 907.562 1385.53C907.805 1378.45 913.247 1375.09 918.562 1375.25Z" fill="#ffdbe5" fill-rule="nonzero" opacity="1" stroke="none" vectornator:layerName="Curve 1"/>
<path d="M825.068 1449.71C864.005 1473.47 915.947 1452.55 918.231 1385.91C916.321 1457.53 982.007 1472.19 1018.55 1456.86M1101.75 440.238C1087.08 97.986 586.076 199.382 617.163 853.911C449.233 1009.44 446.543 1103.44 431.834 1289.91C321.887 1606.52 504.419 1713.36 898.599 1749.72C1286.19 1770.91 1537.28 1628.78 1445.69 1308.61C1448.24 1112.34 1461.6 1063.37 1377.62 905.893C1819.16 386.399 1366.23 78.3856 1101.77 438.309M1105.89 432.903C1047.56 564.749 1029.75 631.529 1004.69 813.974" fill="none" opacity="1" stroke="#000000" stroke-linecap="round" stroke-linejoin="round" stroke-width="21.3271" vectornator:layerName="Curve 2"/>
<path d="M643.487 1303.36C601.945 1287.7 575.145 1254.64 583.628 1229.52C592.111 1204.39 632.664 1196.73 674.206 1212.39C715.747 1228.05 742.547 1261.11 734.064 1286.24C725.581 1311.36 685.029 1319.03 643.487 1303.36ZM1196.78 1230.38C1239.29 1217.94 1279.14 1228.71 1285.8 1254.44C1292.46 1280.17 1263.4 1311.12 1220.9 1323.56C1178.4 1336 1138.55 1325.23 1131.89 1299.5C1125.23 1273.77 1154.28 1242.82 1196.78 1230.38Z" fill="#000000" fill-rule="nonzero" opacity="1" stroke="#000000" stroke-linecap="round" stroke-linejoin="round" stroke-width="5" vectornator:layerName="Eyes"/>
</g>
</svg>
