<?xml version="1.0" encoding="UTF-8" standalone="no"?>
<!DOCTYPE svg PUBLIC "-//W3C//DTD SVG 1.1//EN" "http://www.w3.org/Graphics/SVG/1.1/DTD/svg11.dtd">
<!-- Created with Vectornator (http://vectornator.io/) -->
<svg height="100%" stroke-miterlimit="10" style="fill-rule:nonzero;clip-rule:evenodd;stroke-linecap:round;stroke-linejoin:round;" version="1.1" viewBox="0 0 2000 2000" width="100%" xml:space="preserve" xmlns="http://www.w3.org/2000/svg" xmlns:vectornator="http://vectornator.io" xmlns:xlink="http://www.w3.org/1999/xlink">
<defs/>
<g id="Layer-2" vectornator:layerName="Layer 2">
<path d="M1013.6 318.238C982.316 329.071 1058.21 354.025 1030.81 692.533C996.38 686.185 983.063 684.642 940.523 695.736C868.828 543.175 829.014 329.882 797.761 345.161C766.508 360.441 611.563 508.846 815.511 756.853C759.81 863.002 763.546 904.762 763.546 904.762C763.546 904.762 642.616 1058.53 776.16 1156.33C721.09 1313.71 706.653 1415.95 706.653 1415.95C706.653 1415.95 511.672 1748.39 838.106 1831.46C924.744 1853.02 952.143 1844.11 977.033 1792.71C1022.11 1795.03 1053.44 1809.67 1143.39 1782.38C1189.03 1861.37 1281.48 1799.47 1281.48 1799.47C1438.42 1709.27 1371.99 1491.39 1332.02 1390.14C1312.69 1301.7 1251.37 1197.23 1231.39 1143.73C1307.75 1119.18 1311.82 974.372 1238.88 898.438C1229.38 824.152 1202.25 770.118 1160.19 720.808C1283.84 330.909 1033.72 311.269 1013.6 318.238Z" fill="#ffffff" fill-rule="nonzero" opacity="1" stroke="#000000" stroke-linecap="round" stroke-linejoin="round" stroke-width="5" vectornator:layerName="Body"/>
<path d="M748.111 931.426C763.769 908.166 769.935 896.394 781.819 890.737C805.529 879.45 829.767 905.206 830.281 924.609C830.795 944.012 809.932 960.305 783.681 961C757.43 961.696 737.273 947.527 748.111 931.426ZM1170.72 921.1C1170.21 901.697 1192.09 877.437 1217.32 884.708C1236.89 890.348 1253.08 920.558 1260.74 930.913C1272.29 946.515 1245.44 954.276 1219.19 954.972C1192.93 955.668 1171.24 940.503 1170.72 921.1ZM953.693 1814.96C916.346 1838.96 856.383 1817.65 876.617 1756.54C908.78 1659.39 1036.93 1636.23 954.27 1814.58M1243.88 1780.43C1240.98 1805.68 1184.77 1826.86 1162.55 1789.53C1106.9 1695.99 1146.37 1628.63 1205.11 1690.65C1223.02 1709.57 1231.82 1741.3 1244.84 1776.12M980.799 932.661C983.577 957.607 993.744 1021.28 1002.39 1021.87C1008.17 1020.97 1013.12 993.099 1013.56 988.28C1014.75 975.226 1018.71 951.914 1019.52 931.951C1010.85 929.337 1009.38 925.559 1001.36 914.999C996.369 923.965 990.891 930.75 980.799 932.661ZM883.027 699.276C850.475 695.885 849.245 443.649 779.653 396.811C755.272 446.015 751.43 695.612 848.569 727.991M1087.86 698.319C1135.64 654.235 1042.66 427.268 1070.63 371.924C1202.55 476.968 1147.98 659.94 1122.32 705.019" fill="#ffdbe5" fill-rule="nonzero" opacity="1" stroke="none" vectornator:layerName="Cheek"/>
<path d="M981.648 932.304C996.346 1032.44 1005.58 1070.14 1019.36 931.426" fill="none" opacity="1" stroke="#e58ea4" stroke-linecap="butt" stroke-linejoin="round" stroke-width="5" vectornator:layerName="Mouth"/>
<path d="M842.741 1765.95C880.639 1601.28 1048.33 1614.16 975.664 1793.93M1265.16 1747.27C1235.93 1577.13 1049.76 1603.91 1144.98 1785.19M795.454 1250.22C843.362 1184.51 830.86 1178.08 846.373 1102.65C858.117 1045.55 964.318 1156.73 900.09 1329.04M1221.78 1250.22C1173.87 1184.51 1186.37 1178.08 1170.86 1102.65C1159.11 1045.55 1052.91 1156.73 1117.14 1329.04M973.216 932.523C996.891 932.438 994.328 923.642 1001.08 913.185C1008.48 924.645 1009.79 931.098 1026.78 931.281" fill="none" opacity="1" stroke="#000000" stroke-linecap="butt" stroke-linejoin="round" stroke-width="5" vectornator:layerName="Line"/>
<path d="M838.47 898.218C853.126 903.405 864.036 912.036 874.836 913.144C883.42 913.939 873.442 902.968 867.288 899.159C857.715 893.232 842.255 885.441 805.371 889.356C779.649 897.265 811.574 891.639 838.47 898.218ZM1178.9 889.144C1163.95 894.587 1152.54 903.411 1141.68 904.707C1133.04 905.651 1143.65 894.502 1150.02 890.584C1159.93 884.489 1175.83 876.426 1212.52 879.704C1237.81 887.172 1206.18 882.096 1178.9 889.144Z" fill="#000000" fill-rule="nonzero" opacity="1" stroke="#000000" stroke-linecap="round" stroke-linejoin="round" stroke-width="2.51614" vectornator:layerName="Eyes"/>
</g>
</svg>
