<?xml version="1.0" encoding="UTF-8" standalone="no"?>
<!DOCTYPE svg PUBLIC "-//W3C//DTD SVG 1.1//EN" "http://www.w3.org/Graphics/SVG/1.1/DTD/svg11.dtd">
<!-- Created with Vectornator (http://vectornator.io/) -->
<svg height="100%" stroke-miterlimit="10" style="fill-rule:nonzero;clip-rule:evenodd;stroke-linecap:round;stroke-linejoin:round;" version="1.1" viewBox="0 0 2000 2000" width="100%" xml:space="preserve" xmlns="http://www.w3.org/2000/svg" xmlns:vectornator="http://vectornator.io" xmlns:xlink="http://www.w3.org/1999/xlink">
<defs/>
<g id="Layer-2" vectornator:layerName="Layer 2">
<path d="M999.439 268.671C967.095 261.602 1058.21 354.025 1030.81 692.533C996.38 686.185 983.063 684.642 940.523 695.736C868.828 543.175 814.852 280.315 783.599 295.594C752.346 310.874 611.563 508.846 815.511 756.853C759.81 863.002 750.8 954.329 750.8 954.329C750.8 954.329 642.616 1058.53 776.16 1156.33C721.09 1313.71 706.653 1415.95 706.653 1415.95C706.653 1415.95 511.672 1748.39 838.106 1831.46C924.744 1853.02 952.143 1844.11 977.033 1792.71C1022.11 1795.03 1053.44 1809.67 1143.39 1782.38C1189.03 1861.37 1281.48 1799.47 1281.48 1799.47C1438.42 1709.27 1371.99 1491.39 1332.02 1390.14C1312.69 1301.7 1251.37 1197.23 1231.39 1143.73C1287.5 1105.53 1315.85 1008.14 1242.91 932.209C1225.11 826.477 1192.08 792.556 1160.19 720.808C1283.84 330.909 1031.78 275.739 999.439 268.671Z" fill="#ffffff" fill-rule="nonzero" opacity="1" stroke="#000000" stroke-linecap="round" stroke-linejoin="round" stroke-width="5" vectornator:layerName="Body"/>
<path d="M737.331 987.096C736.816 967.693 757.68 951.4 783.931 950.704C810.182 950.008 831.879 965.173 832.393 984.576C832.907 1003.98 812.044 1020.27 785.793 1020.97C759.542 1021.66 737.845 1006.5 737.331 987.096ZM1172.84 981.067C1172.32 961.665 1193.18 945.371 1219.44 944.676C1245.69 943.98 1267.38 959.145 1267.9 978.548C1268.41 997.95 1247.55 1014.24 1221.3 1014.94C1195.05 1015.64 1173.35 1000.47 1172.84 981.067ZM953.693 1814.96C916.346 1838.96 856.383 1817.65 876.617 1756.54C908.78 1659.39 1036.93 1636.23 954.27 1814.58M1243.88 1780.43C1240.98 1805.68 1184.77 1826.86 1162.55 1789.53C1106.9 1695.99 1146.37 1628.63 1205.11 1690.65C1223.02 1709.57 1231.82 1741.3 1244.84 1776.12M860.83 725.782C772.701 639.493 712.308 475.689 769.334 372.921C779.048 355.414 852.818 573.7 880.443 713.595M1125.01 709.176C1179.72 598.635 1167.61 414.241 1079.87 336.052C1094.91 391.77 1082.37 562.972 1102.47 704.146" fill="#ffdbe5" fill-rule="nonzero" opacity="1" stroke="none" vectornator:layerName="Cheek"/>
<path d="M831.603 981.697C846.37 991.066 857.458 1006.39 868.285 1008.54C876.89 1010.11 866.688 990.706 860.456 983.916C850.759 973.352 835.136 959.41 798.311 965.528C772.733 978.859 804.563 969.648 831.603 981.697ZM1172.04 972.584C1157.18 981.814 1145.95 997.031 1135.1 999.083C1126.48 1000.56 1136.87 981.261 1143.16 974.53C1152.96 964.059 1168.71 950.265 1205.48 956.732C1230.93 970.304 1199.19 960.792 1172.04 972.584Z" fill="#000000" fill-rule="nonzero" opacity="1" stroke="#000000" stroke-linecap="round" stroke-linejoin="round" stroke-width="2.51614" vectornator:layerName="Eyes"/>
<path d="M972.798 1098.32C996.473 1098.24 993.909 1089.44 1000.66 1078.98C1008.06 1090.44 1009.37 1096.9 1026.37 1097.08M842.741 1765.95C880.639 1601.28 1048.33 1614.16 975.664 1793.93M1265.16 1747.27C1235.93 1577.13 1049.76 1603.91 1144.98 1785.19" fill="none" opacity="1" stroke="#000000" stroke-linecap="round" stroke-linejoin="round" stroke-width="5" vectornator:layerName="Line"/>
<path d="M1008.28 1508.52C975.44 1486.3 945.52 1465.62 918.714 1446.03C773.434 1339.87 719.607 1265.95 788.721 1155.41C874.573 1061.27 960.476 1135.5 1001.46 1207.82C1041.09 1138.68 1108.38 1078.37 1193.92 1126.58C1298.71 1214.54 1288.66 1308.95 1008.28 1508.52ZM554.694 914.274C536.217 909.465 519.3 904.876 503.954 900.272C420.784 875.32 383.738 849.929 394.29 786.62C415.175 728.133 466.419 748.239 497.514 775.055C502.528 736.07 521.326 696.515 567.719 704.535C629.762 727.847 642.341 773.622 554.694 914.274ZM1417.74 702.858C1410.72 689.088 1404.39 676.362 1398.91 664.536C1369.17 600.44 1364.06 562.753 1405.71 528.341C1450.06 502.994 1465.69 545.515 1466.84 580.67C1491.7 558.621 1524.17 544.184 1544.11 576.161C1563.62 626.982 1544.19 663.557 1417.74 702.858ZM1508.73 872.288C1506.37 861.119 1504.31 850.828 1502.68 841.334C1493.86 789.885 1497.8 761.891 1535.52 744.781C1573.39 734.675 1576.22 768.058 1569.89 793.511C1592.71 782.216 1619.59 777.774 1627.76 804.375C1631.75 844.426 1609.96 867.142 1508.73 872.288ZM1445.13 1265.13C1440.88 1255.07 1437.06 1245.78 1433.78 1237.16C1416 1190.45 1413.94 1163.48 1443.48 1140.7C1474.51 1124.47 1483.52 1155.29 1482.99 1180.3C1500.68 1165.64 1523.24 1156.68 1535.58 1180.19C1546.91 1217.06 1532.37 1242.26 1445.13 1265.13ZM510.565 1235.26C501.17 1236.27 492.522 1237.1 484.568 1237.65C441.459 1240.63 418.729 1235.25 407.768 1203.68C402.589 1172.55 430.32 1172.93 450.759 1180.03C443.351 1160.85 441.924 1138.96 464.513 1134.54C497.832 1134.52 514.733 1153.78 510.565 1235.26Z" fill="#ffd7e1" fill-rule="nonzero" opacity="1" stroke="none" vectornator:layerName="Heart"/>
<path d="M797.624 1375.14C956.859 1320.34 1011.92 1418.43 885.552 1462.07M1220.05 1363.94C1058.14 1317.65 1008.35 1418.53 1136.85 1455.41" fill="#ffffff" fill-rule="nonzero" opacity="1" stroke="#000000" stroke-linecap="round" stroke-linejoin="round" stroke-width="5" vectornator:layerName="Hand"/>
</g>
</svg>
